<svg width="480" height="480" viewBox="0 0 480 480" fill="none" xmlns="http://www.w3.org/2000/svg">
<path d="M0.145 53.2469V105.126L33.3073 87.0466C-20.2319 298.885 6.29801 455.543 8.53547 475.351C217.07 323.07 422.038 292.835 478.93 284.442L479.601 284.343V272.16V197.093C339.759 213.206 161.162 284.343 57.2801 354.694C56.8806 265.085 67.6683 144.035 115.614 7.65662C71.2642 22.9844 42.0973 34.382 0.145 53.2469Z" fill="#17C314"/>
<path d="M445.696 420.061C434.502 461.155 396.054 486.727 359.819 477.176C323.585 467.626 303.285 426.57 314.479 385.476C325.673 344.382 364.122 318.811 400.356 328.361C436.591 337.912 456.89 378.967 445.696 420.061Z" fill="#17C314"/>
<path d="M208.434 450.814C202.908 471.103 183.925 483.728 166.036 479.013C148.146 474.297 138.124 454.028 143.651 433.739C149.177 413.45 168.16 400.825 186.049 405.541C203.939 410.256 213.961 430.526 208.434 450.814Z" fill="#17C314"/>
<path d="M87.246 260.762C89.6433 238.753 93.6388 168.402 128.799 40.2772C268.24 -7.27828 414.474 -4.92032 480 8.04966C477.336 47.0897 465.057 121.161 438.847 177.442C384.109 186.874 210.561 231.489 115.868 289.656C166.611 220.092 304.454 102.578 421.267 41.0634C274.089 73.8879 161.562 185.695 87.246 260.762Z" fill="#17C314"/>
</svg>
