<svg width="32" height="32" viewBox="0 0 32 32" fill="none" xmlns="http://www.w3.org/2000/svg">
<path d="M0.00966666 3.54979V7.00837L2.22049 5.80311C-1.34879 19.9257 0.419867 30.3695 0.569031 31.6901C14.4714 21.538 28.1359 19.5223 31.9287 18.9628L31.9734 18.9562V18.144V13.1395C22.6506 14.2138 10.7441 18.9562 3.81867 23.6463C3.79204 17.6723 4.51122 9.60233 7.70759 0.510441C4.75095 1.5323 2.80649 2.29214 0.00966666 3.54979Z" fill="white"/>
<path d="M29.7131 28.0041C28.9668 30.7437 26.4036 32.4484 23.988 31.8117C21.5723 31.175 20.219 28.438 20.9653 25.6984C21.7116 22.9588 24.2748 21.2541 26.6904 21.8908C29.1061 22.5275 30.4593 25.2645 29.7131 28.0041Z" fill="white"/>
<path d="M13.8956 30.0543C13.5272 31.4069 12.2617 32.2485 11.0691 31.9342C9.87642 31.6198 9.20827 30.2685 9.57672 28.9159C9.94516 27.5633 11.2107 26.7217 12.4033 27.036C13.5959 27.3504 14.2641 28.7017 13.8956 30.0543Z" fill="white"/>
<path d="M5.8164 17.3841C5.97622 15.9169 6.24258 11.2268 8.58659 2.68515C17.8827 -0.485219 27.6316 -0.328021 32 0.536644C31.8224 3.13932 31.0038 8.0774 29.2564 11.8294C25.6073 12.4583 14.0374 15.4326 7.72456 19.3104C11.1074 14.6728 20.2969 6.83857 28.0844 2.73756C18.2726 4.92586 10.7708 12.3797 5.8164 17.3841Z" fill="white"/>
</svg>
